REM MD5 489b8f4a043dadb93e02b2e28af99949
FILE "Namco Demo CD (USA).bin" BINARY
  TRACK 01 MODE2/2352
    INDEX 01 00:00:00
  TRACK 02 AUDIO
    INDEX 00 42:38:31
    INDEX 01 42:40:31
  TRACK 03 AUDIO
    INDEX 00 43:32:68
    INDEX 01 43:34:68
REM LEADOUT 46:14:68
